<?xml version="1.0" encoding="utf-8"?>
<!-- Generator: Adobe Illustrator 25.2.1, SVG Export Plug-In . SVG Version: 6.00 Build 0)  -->
<svg version="1.1" id="Camada_1" xmlns="http://www.w3.org/2000/svg" xmlns:xlink="http://www.w3.org/1999/xlink" x="0px" y="0px"
	 viewBox="0 0 100 100" style="enable-background:new 0 0 100 100;" xml:space="preserve">
<style type="text/css">
	.st0{display:none;}
	.st1{display:inline;fill:#182843;}
	.st2{fill:#082646;}
</style>
<g class="st0">
	<path class="st1" d="M23.5,65.7c0-3.6,0-7.2,0-10.8c0-0.4,0.1-0.7,0.5-1c8.5-7,16.9-14,25.4-21c0.5-0.4,0.8-0.4,1.3,0
		c8.5,7,16.9,14,25.4,21c0.3,0.3,0.4,0.5,0.4,0.9c0,7.2,0,14.4,0,21.6c0,1.8-1.2,3.1-3.1,3.1c-5.7,0-11.3,0-17,0
		c-0.6,0-0.5-0.3-0.5-0.7c0-4.6,0-9.2,0-13.7c0-0.9,0-1.8,0-2.7c0-0.4-0.1-0.5-0.5-0.5c-3.6,0-7.2,0-10.8,0c-0.6,0-0.5,0.3-0.5,0.7
		c0,5.4,0,10.7,0,16.1c0,1,0.1,0.9-0.9,0.9c-5.4,0-10.8,0-16.2,0c-2.3,0-3.5-1.2-3.5-3.5C23.5,72.5,23.5,69.1,23.5,65.7z"/>
	<path class="st1" d="M64.7,31c0-0.9,0-1.7,0-2.5c0-2,0-4,0-6c0-1.4,0.5-1.9,1.9-1.9c2.7,0,5.3,0,8,0c1.4,0,1.9,0.5,1.9,1.9
		c0,5.9,0,11.8,0,17.7c0,0.4,0.1,0.7,0.4,1c3,2.5,6,5,9,7.4c0.2,0.2,0.4,0.3,0.6,0.5c0.7,0.6,0.8,1.4,0.2,2.1
		c-0.9,1.1-1.8,2.3-2.8,3.4c-0.7,0.7-1.5,0.7-2.3,0c-2.9-2.4-5.8-4.8-8.7-7.3c-7.2-6-14.3-11.9-21.5-17.9c-0.5-0.4-0.9-1.1-1.4-1
		c-0.5,0-0.9,0.7-1.4,1c-10,8.3-20,16.6-30,25c-1.2,1-1.9,1-2.9-0.3c-0.7-0.9-1.5-1.7-2.2-2.6c-0.9-1.1-0.8-1.8,0.2-2.7
		c5.3-4.4,10.6-8.9,16-13.3c5.3-4.4,10.6-8.9,16-13.3c1.1-0.9,2.2-1.7,3.7-1.8c1.6-0.1,3,0.3,4.3,1.3c3.5,2.9,7,5.8,10.4,8.7
		C64.3,30.7,64.4,30.8,64.7,31z"/>
</g>
<g class="st0">
	<path class="st1" d="M72.6,14.5c-0.1,0.3,0.2,0.3,0.3,0.3c2.1,0.9,3.1,2.5,3.1,4.8c0,1.4,0,2.8,0,4.1c0,0.4-0.1,0.6-0.5,0.7
		c-1.2,0.2-2.2,0.8-2.9,1.8c-0.5,0.6-1,1.3-1.5,1.9c-0.2-0.3-0.1-0.5-0.1-0.8c0-2.4,0-4.8,0-7.2c0-0.5-0.1-0.7-0.7-0.7
		c-9.6,0-19.2,0-28.8,0c-0.5,0-0.6,0.2-0.6,0.6c0,3.6,0,7.2,0,10.8c0,2.8-1.6,4.4-4.4,4.4c-3.6,0-7.1,0-10.7,0
		c-0.6,0-0.8,0.1-0.8,0.8c0,14.8,0,29.6,0,44.5c0,0.6,0.2,0.8,0.8,0.8c14.8,0,29.5,0,44.3,0c0.7,0,0.8-0.2,0.8-0.9
		c0-6.3,0-12.5,0-18.8c0-0.5,0.1-1,0.5-1.4c0.2-0.2,0.4-0.5,0.6-0.8c0.6-0.9,1.1-1.7,2.3-1.9c0.7-0.1,1.2-0.7,1.7-1.2
		c0.2,0.3,0.1,0.6,0.1,0.8c0,8.1,0,16.1,0,24.2c0,2.3-1,3.9-3.1,4.8c-0.1,0.1-0.4,0-0.3,0.3c-16.4,0-32.9,0-49.3,0
		c-0.2-0.3-0.2-0.3-0.4-0.4c-1.9-0.9-3-2.4-3-4.5c0-15.9,0-31.9,0-47.8c0-1.6,0.5-2.8,1.6-3.9c4.6-4.5,9.1-9.1,13.7-13.7
		c0.6-0.6,1.2-1,1.9-1.3c0.1-0.1,0.4,0,0.3-0.3C49.2,14.5,60.9,14.5,72.6,14.5z M37.5,21.4C34,24.9,30.5,28.5,27,32
		c0.1,0,0.3,0,0.4,0c3,0,6.1,0,9.1,0c0.9,0,1-0.1,1-1c0-3,0-6,0-9C37.5,21.7,37.6,21.5,37.5,21.4z"/>
	<path class="st1" d="M85.7,34.5c0,0.4-0.2,0.7-0.4,1c-4,6.1-8,12.3-11.9,18.4c-0.4,0.6-0.9,0.9-1.5,0.6c-0.5-0.2-0.6-0.1-0.9,0.3
		c-2.3,3.3-4.6,6.6-6.9,9.8c-1.6,2.2-3.2,4.3-5.2,6.2c-1,0.9-2,1.7-3.1,2.3c-0.3,0.2-0.5,0.4-0.9,0.1c-0.2-0.2-0.3,0.1-0.4,0.3
		c-0.3,0.4-0.5,0.7-0.8,1.1c-0.4,0.6-1.1,0.7-1.6,0.3c-0.5-0.4-0.6-1-0.2-1.6c0.2-0.3,0.4-0.5,0.6-0.8c0.2-0.3,0.6-0.6,0.1-1
		c-0.2-0.2,0-0.5,0-0.7c0.6-2.9,1.8-5.7,3.4-8.2c2.8-4.2,5.8-8.2,8.6-12.4c0.3-0.4,0.5-0.7,0-1.2c-0.5-0.4-0.2-1,0.1-1.5
		c2.6-3.5,5.3-6.9,7.9-10.4c0.6-0.8,1.2-1.5,1.7-2.3c0.2-0.3,0.5-0.5,0-0.8c-0.4-0.3-0.7-0.3-1,0.2c-2.7,3.6-5.5,7.2-8.3,10.8
		c-0.2,0.2-0.3,0.4-0.5,0.6c-0.4,0.4-1.1,0.5-1.5,0.1c-0.5-0.4-0.5-0.9-0.2-1.5c0.1-0.1,0.2-0.3,0.3-0.4c4-5.2,7.9-10.3,11.9-15.5
		c0.2-0.3,0.5-0.6,0.9-0.7c0.5-0.1,0.8,0.1,1.1,0.5c0.3,0.4,0.3,0.8,0,1.2c-0.2,0.3-0.5,0.6-0.7,1c-0.2,0.3-0.4,0.5,0,0.8
		c0.4,0.2,0.6,0.4,0.9-0.1c0.1-0.3,0.4-0.5,0.5-0.7c0.4-0.6,1.1-0.9,1.8-0.8c2.5,0.4,4.4,1.8,5.7,4C85.6,33.8,85.7,34.1,85.7,34.5z"
		/>
	<path class="st1" d="M60.8,49.9C60,51,59.3,52,58.6,53c-0.2,0.3-0.5,0.2-0.8,0.2c-6.6,0-13.3,0-19.9,0c-2,0-4,0-6,0
		c-0.6,0-0.8-0.2-0.8-0.8s0-1.3,0-1.9c0-0.5,0.1-0.7,0.7-0.7c3.9,0,7.8,0,11.7,0c5.5,0,11,0,16.5,0C60.2,49.9,60.4,49.9,60.8,49.9z"
		/>
	<path class="st1" d="M45.6,42.6c4.6,0,9.2,0,13.8,0c0.5,0,0.7,0.1,0.4,0.6c-0.3,0.6-0.4,1.3-0.3,2c0.1,0.6-0.2,0.7-0.7,0.7
		c-3.9,0-7.9,0-11.8,0c-5,0-10.1,0-15.1,0c-0.6,0-0.8-0.2-0.8-0.8c0.1-0.6,0.1-1.2,0-1.8c-0.1-0.7,0.1-0.9,0.8-0.9
		C36.4,42.6,41,42.6,45.6,42.6z"/>
	<path class="st1" d="M55.6,57.2c-0.8,1.1-1.5,2.1-2.1,3.2c-0.2,0.3-0.5,0.2-0.8,0.2c-5.1,0-10.2,0-15.3,0c-1.9,0-3.8,0-5.7,0
		c-0.6,0-0.7-0.2-0.7-0.7c0-0.7,0-1.3,0-2c0-0.5,0.1-0.7,0.7-0.7c3.2,0,6.5,0,9.7,0c4.4,0,8.9,0,13.3,0C55,57.2,55.2,57.2,55.6,57.2
		z"/>
	<path class="st1" d="M34.9,70.8c1.1,0,2.1,0.8,3.1,1.8c0.2,0.2,0.4,0.5,0.6,0.7c0.4,0.5,0.8,0.6,1.4,0.3c1.1-0.7,2.3-1.3,3.6-1.5
		c1.8-0.3,3.5,0.1,5.2,0.8c0.6,0.2,0.8,0.8,0.6,1.4S48.6,75.1,48,75c-0.7-0.2-1.4-0.4-2.1-0.5c-1.5-0.3-2.9,0-4.2,0.8
		c-0.5,0.3-1,0.6-1.6,0.9c-0.8,0.4-1.6,0.3-2.3-0.3c-0.4-0.4-0.8-0.8-1.1-1.3c-0.4-0.5-0.9-1-1.6-1.3c-0.7-0.3-1.2,0-1.3,0.7
		c-0.1,0.3-0.1,0.6-0.1,0.9c-0.1,0.6-0.4,1-1.1,1c-0.6,0-1-0.3-1.1-0.8C30.9,73,32.6,70.8,34.9,70.8z"/>
	<path class="st1" d="M34.4,69.4c-0.9-0.1-1.8-0.4-2.3-1.2c-0.4-0.6-0.3-1.3,0.2-1.6c0.5-0.4,1.1-0.3,1.6,0.3c0.4,0.5,1,0.5,1.4,0
		c0.6-0.7,1.2-0.8,1.7-0.3s0.5,1.2-0.1,1.9C36.4,69,35.4,69.4,34.4,69.4z"/>
</g>
<g class="st0">
	<path class="st1" d="M40,21c12.3,0,22,10.3,21.3,22.6c-0.2,3.5-1.2,6.7-3,9.7c-0.5,0.8-0.5,0.8,0.3,1.4c5,3.6,10,7.3,15,11
		c2.6,1.9,3.6,4.5,3,7.6s-2.7,5.2-5.8,5.8c-3.1,0.7-5.8-0.4-7.7-3c-3.7-5-7.3-10.1-11-15.1c-0.4-0.5-0.6-0.6-1.2-0.3
		c-12.8,7.8-29.8,0-32.1-14.8C16.7,32.8,26.8,21,40,21z M21.4,42.4c0.1,10.5,8.4,18.7,18.8,18.6c10.2-0.1,18.5-8.5,18.4-18.8
		C58.5,32,50.1,23.7,39.8,23.8C29.6,23.9,21.3,32.2,21.4,42.4z"/>
	<path class="st1" d="M39.8,51.4c-3.4,0-6.8,0-10.1,0c-2.3,0-3.6-2.2-2.4-4.2c3.4-5.9,6.8-11.8,10.2-17.7c1.2-2.1,3.7-2.1,4.9,0
		c3.4,5.9,6.8,11.7,10.2,17.6c0.6,1,0.7,2,0.1,2.9c-0.6,1-1.5,1.3-2.6,1.3C46.6,51.3,43.2,51.4,39.8,51.4L39.8,51.4z M42,35.3
		c0.1-1.5-0.3-1.9-1.3-2.1c-0.4-0.1-0.8-0.1-1.2,0c-1.3,0.1-1.8,0.7-1.6,1.9c0.4,2.9,0.9,5.7,1.3,8.6c0.1,0.6,0.6,0.4,0.9,0.4
		c0.4,0,0.7,0,0.7-0.5c0.1-0.9,0.2-1.9,0.4-2.8C41.5,38.8,41.8,36.9,42,35.3z M42,47.1c0-1.2-0.9-2.1-2.1-2.1c-1.1,0-2,0.9-2,2
		c0,1.2,0.9,2.1,2.1,2.1C41.2,49.1,42,48.3,42,47.1z"/>
</g>
<g class="st0">
	<path class="st1" d="M12.9,74.6c0.4-0.9,1-1.6,1.6-2.3c9.1-9,18.1-18.1,27.2-27.1c0.8-0.8,0.9-1.3,0-2.1c-1.5-1.3-2.8-2.8-4.3-4.2
		c-0.6-0.5-0.7-0.8,0-1.5c3.9-3.8,7.7-7.6,11.5-11.5c0.7-0.7,1.1-0.6,1.7,0C55.7,31,60.8,36.1,66,41.2c0.6,0.6,0.7,0.9,0.1,1.6
		c-3.8,3.7-7.6,7.5-11.3,11.4c-0.7,0.8-1.2,0.7-1.8,0c-1.5-1.6-3.1-3-4.5-4.6c-0.8-0.8-1.2-0.9-2,0C40.3,55.9,34.1,62,28,68.1
		c-2.9,2.9-5.9,5.9-8.8,8.8c-2.5,2.5-4.5,2.2-6.3-0.7C12.9,75.7,12.9,75.1,12.9,74.6z"/>
	<path class="st1" d="M40.6,79.3c-0.3-0.6-0.8-0.9-1-1.5c-0.8-2.4,0.6-4.6,3.1-4.4c1.6,0.1,2.2-0.3,2-2c-0.2-1.2,0.2-1.6,1.5-1.6
		c11.3,0.1,22.6,0.1,33.9,0c1.3,0,1.7,0.4,1.5,1.6c-0.2,1.4,0.2,2.2,1.8,1.9c1.8-0.3,2.8,0.7,3.5,2.2c0,1.3,0.5,3-0.1,3.6
		s-2.4,0.1-3.6,0.1C69,79.3,54.8,79.3,40.6,79.3z"/>
	<path class="st1" d="M46,18.3c0.7,0.5,1.5,0.9,2,1.7c0.8,1.3,0.8,2.6-0.3,3.7c-4.1,4.2-8.3,8.3-12.5,12.4c-1.2,1.2-2.9,1.1-4.2-0.2
		s-1.6-3-0.4-4.2c4.2-4.3,8.5-8.5,12.8-12.8c0.3-0.3,0.7-0.5,1-0.7C44.9,18.3,45.4,18.3,46,18.3z"/>
	<path class="st1" d="M73.8,47c0,0.8-0.4,1.4-0.9,1.9c-4.1,4.1-8.2,8.2-12.3,12.3c-1.3,1.2-3,1.1-4.3-0.2c-1.4-1.4-1.5-3-0.2-4.3
		c4.1-4.1,8.2-8.1,12.2-12.2c1-1,2.1-1.3,3.4-0.7C73,44.4,73.7,45.5,73.8,47z"/>
</g>
<g transform="translate(0.000000,512.000000) scale(0.100000,-0.100000)" class="st0">
	<path class="st1" d="M278.8,4927.4c-17.6-3-34.1-14.6-43.4-30.6c-2.3-3.9-16-39.9-30.6-80c-14.4-40.1-27.1-74.9-28-77.4
		c-1.4-4-1.8-3.5-4.6,5.6c-4.9,17.4-4.4,17.2-57.7,17.2c-48.9,0-53.1-0.7-57.2-9.1c-8.8-18.1-9.3-42.6-1.2-63.1
		c4.7-11.6,7.4-12.1,55-12.1c23.4,0,42.4-0.7,42.4-1.4c0-0.9-1.9-2.5-4.2-3.5c-8.1-3.7-18.5-14.6-21.6-22.8
		c-3-7.7-3.2-17.6-3.2-154.2c0-136.3,0.2-146.3,3.2-150.5c6.2-9.3,7.9-9.5,68.1-9.5s61.9,0.2,68.1,9.5c2.8,4,3.2,10.4,3.7,56.8
		l0.5,52.4H500h231.9l0.5-52.2c0.5-46.6,0.9-52.9,3.7-57c6.2-9.3,7.9-9.5,68.1-9.5c60.1,0,61.9,0.2,68.1,9.5
		c3,4.2,3.2,14.2,3.2,150.5c0,136.6-0.2,146.4-3.2,154.2c-3.2,8.3-13.5,19.2-21.6,22.8c-2.3,1-4.2,2.6-4.2,3.5
		c0,0.7,19,1.4,42.4,1.4c47.7,0,50.3,0.5,55,12.1c8.1,20.6,7.6,45-1.2,63.1c-4,8.4-8.3,9.1-57.2,9.1c-53.3,0-52.7,0.2-57.7-17.2
		l-3-10l-2.1,6.2c-27.4,76.7-54.7,150.1-58,155.6c-9.5,16.2-25.1,27.1-44,30.6C708,4929.7,293,4929.7,278.8,4927.4z M733.3,4768.5
		c16.7-46.4,30.9-86.2,31.5-88.3l1-4H500.1c-165.1,0-265.7,0.7-265.7,1.6c0,1.4,53.6,151,61.4,171.3l1.9,4.7l202.4-0.4l202.6-0.5
		L733.3,4768.5z M326.3,4613c10.7-7.4,14.6-14.9,14.6-28.5c0-10.5-0.5-12.5-5.5-18.6c-11.1-13.7-11.1-13.7-67.5-13.7
		c-27.6,0-52.2,0.5-54.9,1.4c-7.6,2.1-16.7,11.1-20,19.7c-6.2,16.4,0.5,32.5,17.1,41c7.6,3.9,8.6,4,58.9,3.5
		C319.6,4617.2,320.1,4617.2,326.3,4613z M790.1,4614.2c16.4-8.4,23-24.6,16.9-41c-3.3-8.6-12.5-17.6-20-19.7
		c-2.6-0.9-27.3-1.4-54.9-1.4c-56.4,0-56.4,0-67.5,13.7c-4.9,6.2-5.5,8.1-5.5,18.6c0,9.7,0.7,13,4.4,18.1
		c4.2,6.2,11.4,11.8,18.5,14.1c1.9,0.5,25.3,1,51.9,1.2C780.8,4618.1,782.5,4618,790.1,4614.2z"/>
</g>
<g transform="translate(0.000000,512.000000) scale(0.100000,-0.100000)">
	<path class="st2" d="M703.6,4950.8c-350.8-61.1-445.2-78.2-452.5-81.4c-16.8-7.7-29.6-25.4-32.7-44.6c-1.2-8-0.9-12.5,1.9-29.2
		l3.5-19.7l232.5-0.7l232.7-0.7l11.4-4.1c24.5-9,46.7-28.6,57.8-51c10.4-21,10.4-20.4,10.4-117.3c0-47.4,0.4-86.6,1.2-86.9
		c0.6-0.4,15.3,1.9,32.8,5c32.8,5.8,41.4,8.8,51.4,17.1c11.8,9.8,21.2,28.9,21.2,43.3c0,3.4-13.1,81-29.2,172.3
		c-22.5,127.6-30.1,167.9-32.8,173.7c-4.1,9.2-14.7,20.9-23.3,26c-7.2,4.1-21,8-27.7,7.9C759.6,4960.3,733.4,4955.9,703.6,4950.8z"
		/>
	<path class="st2" d="M169.4,4729.4c-20.9-6.6-37.2-25.8-40.7-47.6l-1-5.8h298.8h298.8l-0.9,7.6c-2.1,16.6-15.6,34.6-32.4,42.9
		l-8.8,4.2l-253.8,0.3C222.4,4731.1,174.4,4730.8,169.4,4729.4z"/>
	<path class="st2" d="M128.2,4582.6V4533l298.8,0.3l298.6,0.4l0.4,49.3l0.3,49.2h-299h-299L128.2,4582.6L128.2,4582.6z"/>
	<path class="st2" d="M128.4,4415.9l0.4-73.4l5.4-11.1c6.6-13.3,15-21.4,28.6-27.9l9.8-4.7l250-0.4c273.5-0.4,259.2-0.7,274.1,7.9
		c15,8.8,25.7,25.7,28.1,44.1c0.6,5.4,1.2,38.8,1.3,74.4v64.5h-299H128L128.4,4415.9z M312.1,4391.2c6-3.4,11.5-12.3,11.5-18.7
		c0-7-5.7-15.7-12.3-18.8c-5.8-2.9-8.6-3.1-59.8-3.1c-53,0-53.8,0-59.5,3.2c-14.7,8.3-14.9,28.3-0.3,37l5.7,3.5H252
		C305.2,4394.4,306.6,4394.4,312.1,4391.2z"/>
</g>
</svg>
