<?xml version="1.0" standalone="no"?>
<!DOCTYPE svg PUBLIC "-//W3C//DTD SVG 20010904//EN"
 "http://www.w3.org/TR/2001/REC-SVG-20010904/DTD/svg10.dtd">
<svg version="1.0" xmlns="http://www.w3.org/2000/svg"
 width="3000.000000pt" height="571.000000pt" viewBox="0 0 3000.000000 571.000000"
 preserveAspectRatio="xMidYMid meet">

<g transform="translate(0.000000,571.000000) scale(0.100000,-0.100000)"
fill="#000000" stroke="none">
<path d="M3115 5591 c-11 -5 -31 -21 -45 -36 l-25 -27 -3 -374 -3 -374 -285 0
c-157 0 -328 -5 -382 -11 -782 -85 -1488 -576 -1832 -1274 -410 -833 -289
-1788 319 -2516 317 -380 807 -672 1303 -777 214 -46 239 -47 988 -47 l715 0
85 23 c228 62 384 191 457 378 23 61 27 87 31 217 l4 147 1109 0 1108 0 35 30
c61 54 54 147 -16 190 -33 20 -47 20 -1135 20 l-1102 0 -3 477 -3 478 -32 80
c-74 180 -208 304 -398 366 -66 21 -90 23 -397 27 l-328 4 0 974 0 974 284 0
c299 0 361 -6 434 -43 63 -31 140 -110 171 -176 26 -56 26 -58 31 -366 6 -347
7 -352 76 -381 50 -21 97 -9 134 32 l30 35 0 304 c0 180 -4 326 -11 357 -6 29
-29 91 -51 137 -49 103 -158 218 -255 269 -122 64 -179 72 -529 72 l-313 0 -3
375 -3 375 -31 31 c-33 33 -92 46 -129 30z m-75 -2025 l0 -975 -227 -3 c-190
-2 -233 -6 -258 -20 -65 -35 -80 -126 -29 -179 15 -16 44 -34 63 -39 20 -5
129 -10 244 -10 l207 0 0 -432 c0 -481 4 -518 63 -643 82 -172 235 -291 427
-334 25 -6 184 -11 358 -11 l312 0 0 -109 c0 -139 -17 -195 -81 -266 -55 -59
-134 -105 -229 -132 -60 -17 -116 -18 -745 -18 -601 0 -693 2 -788 18 -464 75
-849 263 -1166 571 -197 192 -320 361 -436 600 -83 172 -134 316 -169 485 -48
227 -56 382 -31 611 90 855 693 1564 1518 1785 217 59 341 71 705 74 l262 1 0
-974z m895 -1239 c105 -33 186 -103 232 -202 l28 -60 3 -453 3 -453 -318 3
-318 3 -63 29 c-80 37 -161 122 -194 203 -22 57 -23 64 -26 501 l-3 442 308 0
c220 0 319 -4 348 -13z"/>
<path d="M6975 3874 c-141 -26 -230 -81 -273 -167 -43 -87 -52 -161 -52 -462
0 -297 9 -374 49 -453 27 -53 102 -117 165 -140 108 -41 184 -47 566 -47 309
0 378 3 447 18 148 32 223 78 268 167 34 67 45 144 45 312 l0 148 -385 0 -385
0 0 -65 0 -65 312 0 311 0 -7 -112 c-10 -170 -48 -229 -164 -258 -65 -16 -678
-25 -810 -12 -178 18 -230 62 -252 208 -13 89 -13 519 0 608 14 97 41 140 109
174 l56 27 446 0 445 0 59 -30 c70 -36 92 -72 107 -175 l10 -70 76 0 75 0 -6
73 c-16 179 -86 261 -272 313 -85 25 -818 31 -940 8z"/>
<path d="M8805 3879 c-140 -21 -245 -76 -289 -152 -53 -91 -59 -132 -64 -425
-4 -306 4 -404 44 -493 47 -103 120 -152 277 -186 70 -15 137 -18 467 -18 403
0 477 6 586 47 29 10 73 37 98 60 99 87 116 165 116 541 0 296 -9 365 -54 455
-46 90 -130 140 -280 167 -70 12 -166 15 -465 14 -207 -1 -403 -5 -436 -10z
m966 -151 c103 -51 119 -114 119 -478 0 -356 -18 -432 -111 -478 -67 -33 -177
-42 -534 -42 -576 0 -611 15 -636 265 -16 153 -6 553 15 620 23 74 74 117 159
135 23 5 242 8 487 7 l445 -2 56 -27z"/>
<path d="M19452 3879 c-160 -28 -252 -124 -252 -265 0 -66 22 -117 71 -165
l47 -45 -42 -12 c-102 -27 -180 -109 -213 -221 -23 -82 -14 -278 16 -348 72
-163 222 -200 771 -190 312 6 396 16 484 57 48 23 95 62 113 93 9 17 21 13
152 -53 79 -39 145 -70 146 -68 6 6 45 109 45 118 0 6 -64 42 -143 81 l-143
72 4 158 4 159 -76 0 -76 0 0 -121 0 -121 -452 229 c-360 182 -461 237 -500
274 -47 45 -48 46 -48 108 0 55 3 66 28 91 46 45 106 52 430 48 263 -3 290 -5
326 -23 57 -29 75 -59 83 -138 l6 -67 73 0 74 0 0 63 c0 117 -42 206 -114 244
-74 39 -133 45 -451 49 -170 1 -334 -2 -363 -7z m433 -791 c234 -117 424 -217
422 -223 -8 -22 -70 -53 -134 -66 -91 -18 -678 -18 -778 0 -139 24 -184 73
-193 207 -7 108 11 168 68 224 47 48 91 67 157 69 24 1 150 -57 458 -211z"/>
<path d="M23205 3879 c-118 -18 -185 -47 -245 -108 -91 -91 -109 -177 -110
-523 0 -390 33 -499 177 -575 100 -54 173 -64 518 -70 598 -11 760 25 843 188
50 98 56 152 56 464 0 228 -3 293 -17 348 -38 151 -102 216 -262 263 -52 15
-115 18 -480 20 -231 1 -447 -2 -480 -7z m949 -139 c51 -19 98 -65 115 -116
19 -54 28 -595 11 -694 -31 -187 -99 -205 -710 -197 -389 5 -436 11 -490 62
-61 59 -65 84 -65 460 l0 340 25 49 c56 112 75 115 630 112 354 -2 453 -5 484
-16z"/>
<path d="M28247 3880 c-212 -25 -327 -82 -379 -188 -20 -41 -23 -62 -23 -157
0 -63 6 -125 13 -146 17 -48 69 -101 126 -128 94 -44 163 -52 531 -61 358 -9
434 -18 490 -54 59 -39 86 -135 64 -236 -30 -140 -157 -180 -574 -180 -396 1
-475 25 -493 156 l-7 49 -79 3 -78 3 7 -58 c26 -224 166 -283 666 -283 386 0
547 36 646 142 57 62 68 102 68 238 0 136 -17 192 -73 241 -90 79 -196 98
-597 105 -328 6 -416 14 -476 45 -64 32 -81 68 -77 171 3 99 18 128 83 164 75
43 138 49 505 49 l345 0 50 -25 c54 -27 80 -65 90 -132 l6 -38 76 0 76 0 -7
61 c-8 76 -46 149 -97 184 -48 34 -138 62 -241 75 -94 11 -539 11 -641 0z"/>
<path d="M10307 3864 c-11 -11 -8 -798 3 -896 19 -164 66 -245 173 -298 116
-57 175 -64 552 -64 358 -1 434 6 544 47 92 34 160 110 191 212 18 63 30 433
23 733 l-6 272 -73 0 -73 0 -4 -472 c-3 -352 -7 -484 -17 -516 -19 -64 -65
-107 -135 -129 -54 -16 -99 -18 -430 -18 -411 0 -462 5 -520 56 -70 61 -69 60
-75 594 l-5 480 -70 3 c-39 1 -74 0 -78 -4z"/>
<path d="M12107 3864 c-4 -4 -7 -283 -7 -621 l0 -613 565 0 565 0 0 65 0 65
-485 0 -485 0 -2 553 -3 552 -70 3 c-39 1 -74 0 -78 -4z"/>
<path d="M14042 3753 c-132 -225 -629 -1078 -641 -1100 l-12 -23 89 0 88 0 76
138 76 137 493 0 494 0 75 -137 74 -138 88 0 c49 0 88 2 88 4 0 3 -161 281
-358 618 l-358 613 -101 3 -102 3 -69 -118z m373 -711 c-113 -1 -297 -1 -410
0 l-205 3 191 335 c105 184 198 346 206 359 14 22 21 12 219 -335 l205 -359
-206 -3z"/>
<path d="M15298 3864 c-5 -4 -8 -283 -8 -621 l0 -613 80 0 80 0 0 245 0 245
418 0 c544 0 617 -9 662 -83 18 -29 20 -51 20 -219 l0 -188 81 0 81 0 -4 188
c-4 148 -8 196 -22 229 -21 50 -76 101 -117 110 -37 7 -37 20 0 28 53 11 106
59 131 116 21 47 25 73 28 195 2 85 -1 157 -8 182 -14 55 -63 110 -118 133
-105 45 -177 51 -752 56 -300 3 -548 2 -552 -3z m1094 -134 c48 -5 102 -16
121 -25 55 -26 62 -50 62 -211 0 -129 -2 -145 -21 -171 -50 -67 -98 -73 -646
-73 l-458 0 0 245 0 245 428 0 c235 0 466 -4 514 -10z"/>
<path d="M16990 3805 l0 -65 308 -2 307 -3 3 -552 2 -553 75 0 75 0 0 555 0
555 310 0 311 0 -3 63 -3 62 -692 3 -693 2 0 -65z"/>
<path d="M21517 3864 c-4 -4 -7 -283 -7 -621 l0 -613 565 0 565 0 0 65 0 65
-485 0 -485 0 -2 553 -3 552 -70 3 c-39 1 -74 0 -78 -4z"/>
<path d="M24758 3864 c-5 -4 -8 -283 -8 -621 l0 -613 80 0 80 0 0 245 0 245
408 0 c424 0 531 7 645 41 84 25 145 80 166 148 17 59 18 334 1 387 -28 86
-76 122 -199 151 -54 13 -165 16 -616 20 -302 3 -553 1 -557 -3z m1142 -150
c82 -29 92 -53 88 -226 -3 -120 -6 -140 -24 -165 -50 -67 -100 -73 -621 -73
l-433 0 0 246 0 246 468 -4 c431 -4 471 -6 522 -24z"/>
<path d="M26400 3250 l0 -620 620 0 621 0 -3 63 -3 62 -543 3 -542 2 2 218 3
217 513 3 512 2 0 59 0 58 -137 6 c-75 4 -307 7 -515 7 l-378 0 2 203 3 202
543 3 543 2 -3 63 -3 62 -617 3 -618 2 0 -620z"/>
<path d="M15515 1766 c-147 -36 -245 -139 -284 -301 -16 -64 -16 -246 0 -310
54 -218 203 -325 435 -313 156 8 269 78 332 205 41 81 55 152 55 269 -1 295
-159 467 -426 463 -34 0 -84 -6 -112 -13z m254 -102 c20 -8 53 -32 74 -52 71
-69 98 -151 98 -302 0 -210 -63 -323 -204 -365 -173 -51 -337 28 -386 189 -29
93 -29 257 -1 348 32 106 108 176 213 198 54 12 160 3 206 -16z"/>
<path d="M17494 1766 c-177 -41 -299 -163 -335 -336 -17 -80 -7 -252 19 -323
41 -113 118 -194 229 -239 53 -21 73 -23 213 -22 121 1 169 5 220 20 l65 19 3
223 2 222 -155 0 -155 0 0 -45 0 -45 100 0 100 0 0 -144 c0 -168 13 -153 -140
-163 -253 -15 -386 98 -398 338 -10 204 60 334 207 390 71 27 200 29 286 5
108 -31 100 -32 119 13 9 23 16 43 16 46 0 2 -30 14 -67 25 -88 27 -246 35
-329 16z"/>
<path d="M22925 1766 c-147 -36 -245 -139 -284 -301 -16 -64 -16 -246 0 -310
54 -218 203 -325 435 -313 156 8 269 78 332 205 41 81 55 152 55 269 -1 295
-159 467 -426 463 -34 0 -84 -6 -112 -13z m254 -102 c20 -8 53 -32 74 -52 71
-69 98 -151 98 -302 0 -210 -63 -323 -204 -365 -173 -51 -337 28 -386 189 -29
93 -29 257 -1 348 32 106 108 176 213 198 54 12 160 3 206 -16z"/>
<path d="M24737 1766 c-111 -31 -177 -112 -177 -216 0 -142 52 -199 257 -281
163 -65 193 -95 193 -184 0 -59 -22 -97 -74 -127 -37 -20 -53 -23 -151 -22
-82 1 -126 6 -173 22 l-63 20 3 -51 c3 -51 4 -52 43 -66 27 -10 85 -15 180
-15 127 -1 145 1 192 23 134 60 188 200 129 328 -31 65 -90 106 -236 162 -125
48 -175 86 -190 142 -20 72 7 131 75 166 54 28 204 17 308 -23 17 -6 44 73 29
88 -35 35 -263 58 -345 34z"/>
<path d="M10187 1763 c-7 -11 -357 -903 -357 -909 0 -3 23 -4 52 -2 l52 3 55
143 54 142 186 0 186 0 56 -142 55 -143 52 -3 c29 -2 52 1 52 5 0 4 -79 212
-177 461 l-177 452 -42 0 c-24 0 -45 -3 -47 -7z m89 -241 c23 -64 56 -154 73
-199 l30 -83 -144 0 c-80 0 -145 4 -145 8 0 5 27 81 60 170 33 90 63 176 67
192 3 17 8 30 12 30 3 0 25 -53 47 -118z"/>
<path d="M11700 1311 l0 -461 158 0 c238 0 356 33 446 123 83 84 120 189 120
347 0 215 -95 361 -274 420 -54 18 -97 23 -257 27 l-193 6 0 -462z m408 343
c66 -22 135 -82 167 -145 34 -67 48 -174 35 -267 -29 -213 -151 -301 -417
-302 l-93 0 0 363 c0 200 3 367 8 372 13 13 243 -3 300 -21z"/>
<path d="M13444 1753 c3 -10 77 -216 164 -458 l157 -440 54 0 53 0 164 455
c90 250 164 456 164 458 0 2 -25 2 -56 0 l-56 -3 -114 -320 c-63 -176 -122
-347 -131 -380 -9 -33 -19 -63 -23 -68 -3 -4 -12 16 -19 45 -8 29 -61 186
-118 348 -58 162 -112 314 -120 338 l-15 42 -55 0 c-47 0 -54 -2 -49 -17z"/>
<path d="M19117 1317 c-97 -248 -177 -455 -177 -459 0 -5 22 -8 49 -8 l49 0
57 145 57 145 186 -2 187 -3 55 -142 55 -143 54 0 c46 0 52 2 47 18 -4 9 -84
216 -179 459 l-172 443 -45 0 -45 0 -178 -453z m301 111 l69 -188 -148 0 -149
0 11 28 c84 219 119 315 125 348 8 46 -1 65 92 -188z"/>
<path d="M20807 1763 c-4 -3 -7 -211 -7 -461 l0 -454 193 4 c159 4 203 9 257
26 121 39 210 124 252 238 27 73 36 250 18 333 -39 177 -166 287 -360 311 -94
11 -343 14 -353 3z m418 -114 c73 -27 127 -76 162 -146 22 -47 27 -72 31 -163
5 -123 -9 -188 -58 -261 -61 -93 -149 -129 -327 -137 l-123 -5 0 373 0 373
129 -6 c95 -5 143 -12 186 -28z"/>
</g>
</svg>
