<?xml version="1.0" standalone="no"?>
<!DOCTYPE svg PUBLIC "-//W3C//DTD SVG 20010904//EN"
 "http://www.w3.org/TR/2001/REC-SVG-20010904/DTD/svg10.dtd">
<svg version="1.0" xmlns="http://www.w3.org/2000/svg"
 width="2160.000000pt" height="2000.000000pt" viewBox="0 0 2160.000000 2000.000000"
 preserveAspectRatio="xMidYMid meet">

<g transform="translate(0.000000,2000.000000) scale(0.100000,-0.100000)"
fill="#000000" stroke="none">
<path d="M9659 18937 c-79 -33 -121 -61 -164 -109 -48 -53 -84 -132 -96 -211
-5 -34 -9 -571 -9 -1194 l0 -1132 -922 -4 c-955 -4 -1041 -8 -1378 -52 -753
-98 -1470 -298 -2130 -592 -875 -391 -1621 -904 -2296 -1578 -285 -285 -457
-480 -681 -775 -1240 -1632 -1760 -3706 -1429 -5700 262 -1573 1021 -3040
2161 -4175 991 -987 2216 -1677 3580 -2019 437 -109 984 -191 1435 -216 132
-8 838 -10 2175 -8 2171 4 2026 1 2340 63 940 188 1560 762 1721 1594 14 68
18 166 21 463 l5 378 3571 0 c3902 0 3606 -4 3719 57 135 74 219 252 190 406
-31 168 -149 292 -310 326 -39 8 -1015 11 -3612 11 l-3560 0 0 1408 c0 920 -4
1437 -10 1492 -37 293 -134 570 -288 818 -321 517 -856 854 -1472 927 -102 12
-300 15 -1077 15 l-953 0 2 3183 3 3182 970 0 c1052 0 1022 1 1204 -57 411
-131 704 -457 807 -898 16 -68 18 -165 23 -995 l6 -920 23 -56 c132 -327 573
-339 729 -21 l28 57 0 965 c0 1030 1 1003 -51 1211 -177 712 -736 1272 -1444
1450 -221 55 -159 52 -1265 58 l-1030 6 -5 1186 -5 1185 -38 76 c-44 89 -92
136 -187 182 -56 26 -78 31 -155 34 -76 2 -99 -1 -146 -21z m-269 -6622 l0
-3184 -727 -3 -728 -3 -75 -36 c-92 -44 -154 -104 -192 -186 -115 -245 30
-519 299 -563 33 -6 355 -10 741 -10 l682 0 0 -1327 c0 -1366 3 -1506 40
-1698 120 -620 522 -1147 1085 -1425 151 -74 257 -113 410 -151 238 -58 256
-59 1311 -59 l966 0 -5 -343 c-5 -369 -9 -399 -66 -555 -44 -123 -115 -234
-213 -337 -232 -244 -549 -385 -1013 -451 -109 -16 -288 -18 -1950 -21 -2176
-5 -2320 -1 -2830 77 -1183 181 -2290 658 -3235 1394 -404 315 -817 726 -1156
1151 -710 891 -1198 1981 -1390 3105 -106 624 -121 1152 -49 1800 201 1803
1117 3441 2560 4575 622 488 1410 900 2175 1135 514 157 1103 262 1630 289 85
4 509 9 943 10 l787 1 0 -3185z m2813 -4000 c276 -48 511 -180 700 -394 108
-122 190 -267 241 -431 57 -178 56 -157 56 -1647 l0 -1373 -942 0 c-1019 0
-1025 0 -1202 55 -197 60 -358 156 -502 301 -176 177 -277 365 -337 626 -21
92 -21 109 -24 1486 l-4 1392 964 0 c810 0 978 -2 1050 -15z"/>
</g>
</svg>
