<?xml version="1.0" standalone="no"?>
<!DOCTYPE svg PUBLIC "-//W3C//DTD SVG 20010904//EN"
 "http://www.w3.org/TR/2001/REC-SVG-20010904/DTD/svg10.dtd">
<svg version="1.0" xmlns="http://www.w3.org/2000/svg"
 width="1080.000000pt" height="1080.000000pt" viewBox="0 0 1080.000000 1080.000000"
 preserveAspectRatio="xMidYMid meet">

<g transform="translate(0.000000,1080.000000) scale(0.100000,-0.100000)"
fill="#000000" stroke="none">
<path d="M5429 9211 l-29 -29 0 -341 0 -341 -250 0 c-353 0 -525 -22 -763 -97
-785 -246 -1349 -908 -1462 -1718 -18 -128 -21 -406 -6 -515 32 -220 90 -431
167 -600 271 -603 800 -1050 1433 -1210 250 -63 263 -64 971 -65 586 0 652 2
721 18 119 28 230 86 309 163 113 109 160 230 160 411 l0 103 999 0 998 0 34
23 c65 43 62 137 -5 178 -30 18 -70 19 -1028 19 l-998 0 0 398 c0 362 -2 406
-19 475 -33 125 -90 216 -188 298 -129 107 -225 128 -590 129 l-263 0 0 886 0
885 303 -3 c294 -3 303 -4 345 -26 70 -37 127 -96 158 -165 l29 -62 3 -265 c1
-146 5 -276 8 -288 16 -72 116 -97 176 -43 l33 29 0 299 c0 286 -1 301 -23
363 -51 142 -155 260 -286 324 -106 51 -147 56 -461 56 l-285 0 0 320 c0 344
-3 370 -51 404 -13 9 -43 16 -67 16 -35 0 -49 -6 -73 -29z m-29 -1815 l0 -885
-215 -3 c-214 -3 -215 -3 -240 -28 -53 -53 -49 -136 8 -170 29 -18 51 -20 240
-20 l207 0 0 -405 c0 -254 4 -424 11 -457 37 -178 177 -337 359 -407 63 -25
72 -25 379 -29 l313 -4 -4 -112 c-5 -131 -24 -181 -93 -244 -51 -48 -103 -76
-182 -99 -51 -15 -128 -17 -608 -21 -581 -4 -731 3 -908 39 -723 149 -1297
693 -1481 1403 -46 177 -59 300 -53 506 7 245 46 437 133 649 229 556 711 974
1289 1116 181 44 270 53 568 54 l277 1 0 -884z m860 -1137 c72 -34 130 -92
166 -165 l29 -59 3 -412 3 -413 -278 0 c-299 0 -333 5 -410 53 -56 36 -109
101 -133 164 -19 51 -20 78 -20 459 l0 406 293 -4 c290 -3 292 -3 347 -29z"/>
<path d="M1194 3661 c-66 -11 -110 -37 -126 -75 -9 -21 -13 -80 -13 -176 0
-163 7 -184 68 -217 27 -16 59 -18 227 -18 255 0 278 11 295 146 13 101 16 99
-151 99 l-144 0 0 -25 0 -25 114 0 c128 0 131 -2 120 -70 -12 -72 -21 -75
-235 -75 -248 0 -234 -11 -234 196 0 184 -1 183 131 194 102 9 280 -2 306 -18
10 -7 23 -29 29 -49 8 -33 14 -38 38 -38 27 0 28 1 21 38 -17 93 -59 113 -255
117 -77 2 -163 0 -191 -4z"/>
<path d="M1881 3660 c-61 -9 -99 -33 -121 -76 -23 -45 -21 -297 3 -341 34 -62
58 -68 287 -68 177 0 209 2 237 18 51 27 66 67 71 187 7 173 -16 240 -93 270
-37 15 -311 22 -384 10z m378 -60 c30 -15 36 -49 36 -197 0 -187 13 -178 -245
-178 -251 0 -241 -6 -248 148 -5 117 2 185 22 213 9 12 33 21 67 25 77 11 343
3 368 -11z"/>
<path d="M6000 3661 c-53 -8 -86 -24 -100 -51 -17 -31 -12 -84 10 -107 19 -21
19 -22 2 -27 -10 -4 -32 -20 -48 -37 -27 -28 -29 -36 -29 -109 0 -68 3 -82 23
-103 34 -36 93 -47 249 -47 153 1 203 8 245 40 l28 20 50 -25 c49 -25 49 -25
60 -5 14 27 10 32 -49 60 l-51 23 0 64 c0 64 0 64 -27 61 -25 -3 -29 -8 -33
-46 l-5 -43 -170 87 c-93 48 -178 94 -187 102 -21 18 -24 65 -5 80 35 28 274
24 303 -5 8 -8 14 -25 14 -39 0 -20 5 -24 30 -24 28 0 30 3 30 34 0 22 -9 45
-23 62 -20 22 -34 27 -102 35 -92 9 -151 9 -215 0z m145 -303 c91 -46 165 -86
165 -91 0 -21 -65 -28 -216 -25 -191 4 -204 9 -204 87 0 62 33 106 82 110 5 1
82 -36 173 -81z"/>
<path d="M7431 3660 c-61 -9 -99 -33 -121 -76 -23 -45 -21 -297 3 -341 34 -62
58 -68 287 -68 285 0 298 9 308 205 8 173 -15 240 -93 270 -37 15 -311 22
-384 10z m370 -55 c35 -14 44 -54 44 -196 0 -194 14 -184 -245 -184 -251 0
-241 -6 -248 148 -8 184 7 226 86 238 54 9 339 4 363 -6z"/>
<path d="M9375 3661 c-123 -17 -155 -45 -155 -136 0 -104 40 -124 245 -125
182 -1 225 -16 225 -83 0 -77 -44 -97 -219 -97 -148 0 -178 8 -192 50 -8 22
-17 30 -35 30 -36 0 -33 -52 4 -90 36 -35 92 -43 269 -38 186 5 233 35 233
146 0 101 -45 124 -255 129 -161 5 -202 14 -215 48 -11 29 -2 70 20 90 43 39
333 42 372 3 10 -10 18 -25 18 -33 0 -10 10 -15 31 -15 30 0 31 2 25 32 -8 39
-23 58 -62 74 -38 16 -230 25 -309 15z"/>
<path d="M2460 3473 c0 -207 7 -236 63 -277 26 -19 42 -21 215 -21 204 0 227
5 266 58 19 26 21 44 24 228 l3 200 -28 -3 -28 -3 -6 -200 c-3 -110 -6 -201
-7 -203 -1 -2 -18 -10 -37 -18 -25 -10 -75 -14 -178 -14 -148 0 -199 9 -214
38 -4 9 -10 103 -13 207 l-5 190 -27 3 -28 3 0 -188z"/>
<path d="M3157 3653 c-4 -3 -7 -111 -7 -240 l0 -233 220 0 220 0 0 25 0 25
-190 0 -190 0 0 215 0 215 -23 0 c-13 0 -27 -3 -30 -7z"/>
<path d="M3923 3648 c-7 -9 -217 -368 -270 -460 -2 -5 11 -8 29 -8 30 0 37 6
64 53 l30 52 189 0 190 0 28 -52 c26 -48 31 -53 63 -53 l35 0 -15 28 c-9 15
-71 122 -138 237 -122 207 -124 210 -159 213 -21 2 -40 -2 -46 -10z m123 -176
l73 -127 -80 -3 c-44 -2 -113 -2 -154 0 l-74 3 75 133 c42 73 79 130 82 127 3
-3 38 -63 78 -133z"/>
<path d="M4380 3420 l0 -240 30 0 30 0 0 95 0 95 163 0 c159 0 229 -8 250 -29
5 -5 12 -44 15 -85 5 -76 5 -76 33 -76 27 0 29 2 29 43 -1 69 -17 130 -38 148
-21 16 -21 16 5 35 29 22 44 87 34 153 -12 85 -69 100 -378 101 l-173 0 0
-240z m478 167 c21 -21 24 -129 4 -149 -10 -10 -68 -14 -217 -16 l-205 -3 0
89 c0 49 3 92 7 96 4 4 94 5 200 3 166 -3 196 -6 211 -20z"/>
<path d="M5037 3639 c-7 -26 -1 -28 123 -31 l105 -3 3 -212 2 -213 30 0 30 0
2 213 3 212 100 2 c55 1 108 2 118 3 11 0 17 8 17 25 l0 25 -264 0 c-258 0
-264 0 -269 -21z"/>
<path d="M6780 3421 l0 -241 215 0 215 0 0 25 0 25 -185 0 -185 0 -2 213 -3
212 -27 3 -28 3 0 -240z"/>
<path d="M8030 3421 l0 -241 30 0 30 0 0 94 0 94 198 4 c261 5 272 11 272 149
0 127 -8 130 -307 137 l-223 4 0 -241z m455 169 c10 -9 15 -32 15 -76 0 -93
-2 -94 -227 -94 l-183 0 0 88 c0 49 3 92 8 97 12 13 370 -1 387 -15z"/>
<path d="M8660 3420 l0 -240 240 0 240 0 0 25 0 25 -210 0 -210 0 0 85 0 85
201 0 200 0 -3 23 c-3 22 -4 22 -200 25 l-198 2 0 80 0 80 211 0 210 0 -3 23
-3 22 -237 3 -238 2 0 -240z"/>
<path d="M4453 2849 c-65 -19 -110 -110 -100 -201 12 -101 63 -148 158 -148
104 0 159 62 159 178 0 85 -27 137 -83 163 -45 20 -84 22 -134 8z m139 -58
c29 -26 33 -35 36 -97 5 -115 -38 -169 -126 -161 -92 10 -138 112 -96 217 30
74 125 95 186 41z"/>
<path d="M5221 2850 c-80 -20 -125 -82 -125 -175 0 -72 22 -118 74 -152 26
-18 47 -23 101 -23 37 0 79 4 93 10 25 9 26 13 26 90 l0 80 -60 0 c-47 0 -60
-3 -60 -15 0 -11 11 -15 40 -15 l40 0 0 -54 c0 -60 -6 -66 -72 -66 -53 0 -105
26 -123 61 -18 34 -20 128 -3 164 21 47 70 68 150 64 47 -3 72 0 75 7 2 6 -3
14 -11 17 -30 12 -111 16 -145 7z"/>
<path d="M7319 2851 c-77 -25 -109 -75 -109 -171 0 -70 16 -115 54 -150 21
-19 40 -25 90 -28 116 -7 171 48 171 173 0 77 -19 122 -65 156 -29 22 -103 32
-141 20z m118 -46 c53 -37 66 -157 26 -226 -28 -47 -98 -62 -154 -33 -76 39
-80 207 -7 258 28 20 107 21 135 1z"/>
<path d="M8003 2845 c-50 -21 -66 -66 -41 -120 8 -17 35 -37 85 -60 57 -28 74
-41 79 -62 14 -55 -74 -92 -150 -63 -22 8 -26 7 -26 -9 0 -24 19 -31 86 -31
71 0 109 20 124 65 18 54 -2 83 -85 125 -82 41 -102 74 -69 111 17 19 26 21
81 16 47 -5 62 -3 67 8 3 10 -6 17 -32 25 -49 13 -80 12 -119 -5z"/>
<path d="M2345 2680 c-37 -94 -65 -174 -62 -177 14 -14 36 9 53 57 l18 51 75
-3 74 -3 20 -52 c14 -38 25 -53 38 -53 24 0 24 7 0 61 -10 24 -40 99 -66 167
-36 94 -52 122 -65 122 -15 0 -33 -37 -85 -170z m118 38 l25 -68 -58 0 -58 0
26 75 c15 40 30 71 33 67 3 -4 18 -37 32 -74z"/>
<path d="M2990 2674 l-1 -176 88 4 c102 5 140 22 172 78 30 54 29 155 -2 201
-34 52 -78 69 -174 69 l-81 0 -2 -176z m187 125 c34 -21 53 -64 53 -119 0 -95
-41 -137 -141 -142 l-54 -3 -3 129 c-1 72 0 136 3 144 7 18 110 12 142 -9z"/>
<path d="M3672 2838 c3 -7 31 -86 63 -176 77 -216 77 -216 160 16 60 165 62
172 41 172 -20 0 -28 -17 -72 -144 -27 -80 -50 -143 -53 -141 -2 2 -19 48 -37
102 -61 173 -65 183 -86 183 -12 0 -18 -5 -16 -12z"/>
<path d="M5854 2680 c-37 -94 -64 -173 -61 -176 14 -15 36 8 53 56 l18 51 75
-3 74 -3 20 -52 c14 -39 25 -53 39 -53 24 0 25 -5 -55 198 -46 117 -64 152
-77 152 -14 0 -34 -39 -86 -170z m119 38 l25 -68 -58 0 -58 0 26 75 c15 40 30
71 33 67 3 -4 18 -37 32 -74z"/>
<path d="M6503 2678 l2 -173 87 0 c97 0 123 12 166 75 32 47 32 153 -1 201
-34 52 -78 69 -174 69 l-82 0 2 -172z m167 126 c50 -20 70 -56 70 -124 0 -95
-44 -139 -143 -143 l-52 -2 -3 143 -3 142 46 0 c24 0 63 -7 85 -16z"/>
</g>
</svg>
