<?xml version="1.0" standalone="no"?>
<!DOCTYPE svg PUBLIC "-//W3C//DTD SVG 20010904//EN"
 "http://www.w3.org/TR/2001/REC-SVG-20010904/DTD/svg10.dtd">
<svg version="1.0" xmlns="http://www.w3.org/2000/svg"
 width="3000.000000pt" height="714.000000pt" viewBox="0 0 3000.000000 714.000000"
 preserveAspectRatio="xMidYMid meet">

<g transform="translate(0.000000,714.000000) scale(0.100000,-0.100000)"
fill="#000000" stroke="none">
<path d="M1162 5400 c-129 -11 -231 -36 -311 -76 -81 -40 -132 -93 -171 -176
-49 -103 -55 -167 -55 -573 0 -321 3 -379 18 -440 58 -228 173 -317 462 -356
53 -7 247 -9 556 -6 526 4 559 8 696 72 118 55 184 142 214 280 8 37 13 136
13 260 l1 200 -492 3 -493 2 0 -85 0 -85 396 0 397 0 -5 -138 c-4 -113 -9
-147 -27 -187 -68 -153 -152 -169 -835 -162 -458 4 -503 8 -583 50 -43 23 -77
70 -100 137 -16 50 -18 94 -18 465 0 474 3 496 79 571 78 79 82 79 701 79 614
0 618 0 700 -76 51 -47 73 -102 82 -206 l6 -73 98 0 c113 0 104 -12 90 115
-31 266 -177 375 -542 404 -148 12 -733 12 -877 1z"/>
<path d="M3450 5399 c-321 -26 -468 -135 -514 -380 -36 -187 -28 -778 12 -920
48 -171 156 -262 362 -306 76 -16 142 -18 620 -18 478 0 544 2 620 18 206 44
314 135 362 306 40 144 49 715 13 914 -45 255 -188 359 -532 387 -144 11 -801
11 -943 -1z m1106 -182 c67 -22 114 -55 138 -96 41 -71 48 -131 53 -469 8
-524 -14 -620 -158 -681 -75 -33 -203 -41 -659 -41 -570 0 -653 10 -732 87
-72 71 -88 174 -87 578 0 362 11 460 61 536 28 41 112 85 188 98 30 5 300 8
600 7 483 -2 551 -4 596 -19z"/>
<path d="M17004 5401 c-282 -33 -398 -135 -398 -351 -1 -96 25 -152 101 -219
l54 -49 -44 -6 c-47 -7 -144 -60 -189 -103 -35 -33 -82 -123 -103 -197 -22
-75 -16 -312 9 -391 34 -111 104 -184 212 -225 114 -42 211 -52 569 -57 623
-10 832 26 950 160 l45 52 180 -90 c98 -49 181 -87 183 -85 7 8 57 140 57 149
0 5 -80 51 -177 101 -98 50 -181 95 -185 98 -3 4 -3 90 2 192 4 102 5 190 3
197 -4 9 -33 13 -99 13 l-94 0 0 -150 c0 -93 -4 -150 -10 -150 -17 0 -1133
572 -1179 604 -65 46 -94 105 -88 180 6 69 27 103 80 129 65 33 155 39 510 35
284 -4 351 -7 393 -21 86 -28 124 -90 124 -202 l0 -65 102 0 101 0 -6 94 c-12
182 -73 276 -204 316 -38 11 -99 24 -138 30 -92 13 -670 21 -761 11z m476
-1021 c297 -149 540 -274 540 -280 0 -17 -73 -59 -135 -76 -51 -15 -121 -18
-475 -22 -547 -5 -660 8 -739 87 -49 49 -66 109 -65 236 0 91 3 107 31 166 35
75 77 113 156 140 112 39 92 47 687 -251z"/>
<path d="M21790 5399 c-321 -26 -468 -135 -514 -380 -36 -187 -28 -778 12
-920 48 -171 156 -262 362 -306 76 -16 142 -18 620 -18 478 0 544 2 620 18
206 44 314 135 362 306 40 144 49 715 13 914 -45 255 -188 359 -532 387 -144
11 -801 11 -943 -1z m1106 -182 c67 -22 114 -55 138 -96 41 -71 48 -131 53
-469 8 -524 -14 -620 -158 -681 -75 -33 -203 -41 -659 -41 -570 0 -653 10
-732 87 -72 71 -88 174 -87 578 0 362 11 460 61 536 28 41 112 85 188 98 30 5
300 8 600 7 483 -2 551 -4 596 -19z"/>
<path d="M28235 5400 c-276 -18 -425 -62 -525 -156 -72 -67 -93 -124 -98 -265
-2 -66 1 -140 8 -172 22 -109 96 -182 228 -227 124 -41 236 -51 672 -60 452
-8 496 -14 575 -68 62 -43 80 -88 80 -207 0 -87 -3 -107 -25 -150 -68 -137
-234 -171 -790 -162 -344 5 -402 12 -473 56 -41 25 -72 83 -82 154 l-6 47 -95
0 -94 0 0 -43 c0 -60 26 -155 56 -200 55 -83 179 -141 359 -168 119 -18 746
-19 860 -1 330 51 459 152 487 382 21 168 -19 331 -95 396 -48 41 -142 81
-232 99 -103 21 -358 34 -662 35 -346 0 -467 22 -532 95 -35 40 -46 83 -46
175 0 132 51 200 182 240 108 33 254 42 633 38 387 -5 425 -10 490 -64 41 -35
58 -71 66 -138 l7 -56 98 0 c73 0 99 3 99 13 -1 45 -23 157 -39 192 -57 129
-207 194 -496 215 -154 11 -439 11 -610 0z"/>
<path d="M5270 4878 c0 -505 8 -682 36 -778 48 -166 143 -252 336 -302 77 -20
114 -21 518 -25 470 -5 568 1 700 43 127 40 194 93 246 195 56 112 57 124 61
767 l4 592 -95 0 -96 0 0 -507 c-1 -547 -7 -679 -39 -764 -30 -80 -74 -117
-176 -147 -65 -19 -832 -30 -982 -13 -182 20 -245 59 -285 179 -22 66 -22 77
-26 660 l-3 592 -100 0 -99 0 0 -492z"/>
<path d="M7560 4585 l0 -785 725 0 725 0 0 80 0 80 -625 0 -625 0 0 705 0 705
-100 0 -100 0 0 -785z"/>
<path d="M10106 5348 c-36 -58 -896 -1537 -896 -1542 0 -3 51 -6 113 -6 l112
1 96 177 95 177 625 3 624 2 99 -180 98 -180 114 0 115 0 -13 24 c-7 13 -213
366 -458 785 l-444 761 -133 0 c-127 0 -133 -1 -147 -22z m408 -562 c141 -247
254 -452 250 -455 -8 -9 -832 -14 -940 -6 l-92 7 260 454 c143 251 261 454
263 452 1 -2 118 -205 259 -452z"/>
<path d="M11630 4585 l0 -785 95 0 95 0 0 310 0 310 568 0 c325 0 597 -5 637
-10 100 -15 155 -44 183 -100 21 -42 22 -55 22 -277 l0 -233 101 0 101 0 -4
238 c-4 190 -8 246 -22 281 -32 87 -78 128 -171 157 -24 7 -34 14 -25 17 131
43 183 85 221 182 22 56 23 74 24 255 0 194 0 195 -28 252 -34 69 -87 111
-177 139 -140 44 -234 49 -947 49 l-673 0 0 -785z m1423 615 c164 -19 201 -55
212 -204 8 -99 -1 -244 -17 -286 -13 -35 -47 -69 -85 -85 -70 -30 -190 -35
-764 -35 l-579 0 0 310 0 310 573 0 c319 0 611 -5 660 -10z"/>
<path d="M13790 5290 l0 -80 395 0 395 0 0 -705 0 -705 95 0 95 0 0 705 0 705
395 0 395 0 0 80 0 80 -885 0 -885 0 0 -80z"/>
<path d="M19550 4585 l0 -785 720 0 720 0 0 80 0 80 -620 0 -620 0 0 705 0
705 -100 0 -100 0 0 -785z"/>
<path d="M23680 4585 l0 -785 95 0 95 0 0 310 0 310 468 0 c257 0 523 5 592
10 314 23 451 88 497 237 25 82 25 436 0 502 -25 64 -58 103 -114 133 -113 62
-109 61 -905 65 l-728 4 0 -786z m1360 614 c108 -13 163 -37 187 -81 15 -28
18 -58 18 -213 0 -210 -7 -234 -85 -272 -76 -38 -160 -43 -737 -43 l-553 0 0
310 0 310 543 0 c323 0 577 -4 627 -11z"/>
<path d="M25770 4585 l0 -785 790 0 790 0 0 80 0 80 -690 0 -690 0 0 280 0
280 655 0 655 0 0 79 c0 63 -3 80 -16 85 -9 3 -303 6 -655 6 l-639 0 0 260 0
260 690 0 690 0 0 80 0 80 -790 0 -790 0 0 -785z"/>
<path d="M11900 2694 c-123 -33 -230 -113 -289 -218 -59 -103 -76 -184 -76
-356 0 -226 36 -340 143 -452 101 -107 208 -148 381 -148 176 0 284 40 382
141 98 99 146 225 156 409 17 326 -122 560 -374 625 -73 19 -250 19 -323 -1z
m307 -120 c104 -28 185 -117 225 -248 30 -95 32 -318 4 -411 -40 -132 -109
-215 -215 -256 -80 -32 -232 -32 -312 -1 -146 57 -224 192 -236 407 -14 245
56 414 201 485 99 49 213 57 333 24z"/>
<path d="M14420 2694 c-98 -21 -203 -77 -270 -144 -105 -105 -159 -254 -160
-438 0 -306 139 -512 391 -577 96 -25 360 -17 487 15 l92 23 0 284 0 283 -200
0 -200 0 0 -60 0 -60 130 0 130 0 0 -179 c0 -158 -2 -180 -17 -185 -9 -4 -63
-12 -119 -18 -195 -21 -340 18 -434 118 -80 85 -120 201 -120 354 0 215 85
366 248 443 65 31 71 32 202 32 130 0 187 -10 294 -51 10 -4 22 12 40 52 15
31 25 58 24 59 -16 11 -100 37 -161 49 -93 20 -268 20 -357 0z"/>
<path d="M21324 2691 c-128 -37 -228 -121 -289 -244 -47 -96 -65 -186 -65
-332 0 -146 18 -236 65 -332 88 -178 238 -263 465 -263 172 0 277 38 377 137
60 60 124 183 144 278 19 85 16 294 -4 377 -49 198 -176 337 -352 383 -82 21
-261 19 -341 -4z m320 -118 c144 -43 222 -159 247 -366 25 -210 -35 -418 -146
-502 -77 -60 -210 -86 -324 -65 -207 38 -311 196 -311 475 0 169 37 287 116
375 86 95 264 131 418 83z"/>
<path d="M23667 2700 c-102 -26 -205 -111 -226 -186 -16 -56 -13 -165 4 -215
35 -99 113 -158 304 -233 67 -26 142 -62 169 -79 54 -36 92 -102 92 -157 -1
-78 -62 -158 -138 -180 -104 -29 -264 -20 -395 24 l-68 23 3 -66 3 -66 55 -19
c40 -14 94 -20 199 -24 165 -5 227 5 314 51 106 56 157 141 157 265 0 168 -76
245 -343 347 -129 49 -186 88 -214 145 -53 104 -5 219 105 250 62 17 191 12
273 -11 41 -11 83 -23 94 -25 18 -5 23 3 38 47 10 31 13 57 8 62 -5 5 -40 18
-78 29 -78 23 -294 33 -356 18z"/>
<path d="M5121 2678 c-20 -51 -443 -1124 -448 -1135 -4 -10 12 -13 63 -13 l69
0 70 185 70 185 237 0 236 0 73 -185 72 -185 69 0 c38 0 68 4 66 9 -1 4 -104
268 -228 584 l-225 577 -58 0 c-50 0 -59 -3 -66 -22z m208 -532 c22 -60 41
-113 41 -117 0 -5 -83 -9 -185 -9 -102 0 -185 4 -185 9 0 4 34 96 75 203 41
108 82 224 91 257 l18 62 51 -148 c29 -81 71 -197 94 -257z"/>
<path d="M7050 2116 l0 -586 194 0 c243 0 340 15 452 70 134 65 219 173 261
330 23 89 24 291 0 378 -52 193 -179 320 -369 368 -45 11 -132 17 -300 21
l-238 5 0 -586z m479 449 c86 -21 154 -59 206 -118 55 -60 84 -136 97 -252 21
-173 -27 -340 -122 -429 -95 -89 -186 -116 -392 -116 l-138 0 0 465 0 465 143
0 c91 0 165 -6 206 -15z"/>
<path d="M9274 2683 c3 -10 97 -272 209 -583 l202 -565 66 -3 c56 -2 68 0 74
15 3 10 96 266 205 568 109 303 202 558 205 568 7 16 1 18 -66 15 l-74 -3
-143 -400 c-78 -220 -154 -444 -169 -498 -14 -53 -28 -96 -29 -94 -2 2 -15 42
-29 90 -19 67 -275 800 -310 890 -6 14 -20 17 -77 17 -62 0 -69 -2 -64 -17z"/>
<path d="M16503 2133 c-122 -313 -225 -576 -229 -586 -6 -16 0 -18 61 -15 l68
3 71 183 70 182 236 0 236 0 69 -177 c38 -98 71 -182 75 -186 4 -4 36 -7 72
-5 l65 3 -227 580 -228 580 -58 3 -59 2 -222 -567z m406 59 c33 -89 61 -165
61 -167 0 -3 -83 -5 -185 -5 -127 0 -185 3 -185 11 0 6 33 99 74 207 41 109
82 223 91 256 l17 59 33 -99 c18 -55 60 -172 94 -262z"/>
<path d="M18650 2116 l0 -586 194 0 c243 0 340 15 452 70 134 65 219 173 261
330 23 89 24 291 0 378 -52 193 -179 320 -369 368 -45 11 -132 17 -300 21
l-238 5 0 -586z m479 449 c86 -21 154 -59 206 -118 55 -60 84 -136 97 -252 21
-173 -27 -340 -122 -429 -95 -89 -186 -116 -392 -116 l-138 0 0 465 0 465 143
0 c91 0 165 -6 206 -15z"/>
</g>
</svg>
